<?xml version="1.0" encoding="UTF-8" standalone="no"?>
<!-- Created with Inkscape (http://www.inkscape.org/) -->

<svg
   xmlns:dc="http://purl.org/dc/elements/1.1/"
   xmlns:cc="http://creativecommons.org/ns#"
   xmlns:rdf="http://www.w3.org/1999/02/22-rdf-syntax-ns#"
   xmlns:svg="http://www.w3.org/2000/svg"
   xmlns="http://www.w3.org/2000/svg"
   xmlns:xlink="http://www.w3.org/1999/xlink"
   xmlns:sodipodi="http://sodipodi.sourceforge.net/DTD/sodipodi-0.dtd"
   xmlns:inkscape="http://www.inkscape.org/namespaces/inkscape"
   width="128"
   height="128"
   id="svg2"
   sodipodi:version="0.32"
   inkscape:version="0.48.4 r9939"
   sodipodi:docname="AcidUrine.svg"
   version="1.0">
  <defs
     id="defs4" />
  <sodipodi:namedview
     id="base"
     pagecolor="#ffffff"
     bordercolor="#666666"
     borderopacity="1.0"
     inkscape:pageopacity="0.0"
     inkscape:pageshadow="2"
     inkscape:zoom="3.541725"
     inkscape:cx="57.766086"
     inkscape:cy="64.728905"
     inkscape:document-units="px"
     inkscape:current-layer="layer1"
     inkscape:window-width="1280"
     inkscape:window-height="1002"
     inkscape:window-x="1912"
     inkscape:window-y="-8"
     objecttolerance="50"
     inkscape:object-bbox="false"
     inkscape:object-points="false"
     inkscape:object-nodes="false"
     inkscape:object-paths="false"
     inkscape:grid-bbox="false"
     inkscape:guide-bbox="false"
     height="128px"
     width="128px"
     showgrid="false"
     inkscape:window-maximized="1" />
  <metadata
     id="metadata7">
    <rdf:RDF>
      <cc:Work
         rdf:about="">
        <dc:format>image/svg+xml</dc:format>
        <dc:type
           rdf:resource="http://purl.org/dc/dcmitype/StillImage" />
        <dc:title>Sign corrosive</dc:title>
        <dc:date>11/09/2006</dc:date>
        <dc:creator>
          <cc:Agent>
            <dc:title>h0us3s</dc:title>
          </cc:Agent>
        </dc:creator>
        <dc:language>es</dc:language>
        <dc:subject>
          <rdf:Bag>
            <rdf:li>Inkscape</rdf:li>
            <rdf:li>Sign Hazard</rdf:li>
            <rdf:li>Warning</rdf:li>
          </rdf:Bag>
        </dc:subject>
        <cc:license
           rdf:resource="http://web.resource.org/cc/PublicDomain" />
      </cc:Work>
      <cc:License
         rdf:about="http://web.resource.org/cc/PublicDomain">
        <cc:permits
           rdf:resource="http://web.resource.org/cc/Reproduction" />
        <cc:permits
           rdf:resource="http://web.resource.org/cc/Distribution" />
        <cc:permits
           rdf:resource="http://web.resource.org/cc/DerivativeWorks" />
      </cc:License>
    </rdf:RDF>
  </metadata>
  <g
     inkscape:groupmode="layer"
     id="layer2"
     inkscape:label="1"
     style="display:inline" />
  <g
     inkscape:label="Capa 1"
     inkscape:groupmode="layer"
     id="layer1"
     style="display:inline">
    <g
       id="g3141"
       transform="translate(80.72047,0)" />
    <g
       id="g7773"
       transform="matrix(2.1402682,0,0,2.4317769,-768.77146,-395.31125)">
      <path
         inkscape:connector-curvature="0"
         style="fill:#000000;fill-opacity:1;fill-rule:evenodd;stroke:none"
         d="m 389.99972,195.83771 c -0.27553,0.55914 -0.59253,1.08978 -0.66353,1.78953 0.44623,0.5844 0.91464,0.37034 1.38738,0 -0.0994,-0.66745 -0.35654,-1.25603 -0.72385,-1.78953 z"
         id="path3231"
         sodipodi:nodetypes="cccc" />
      <g
         transform="translate(-225.2675,-211.7949)"
         id="use4588">
        <path
           inkscape:href="#path3422"
           sodipodi:type="inkscape:offset"
           inkscape:radius="0"
           inkscape:original="M 602.84375 430.03125 C 601.57099 430.22839 600.45214 430.98062 599.8125 432.09375 L 564.1875 493.8125 C 563.44278 495.10948 563.4307 496.72518 564.1875 498.03125 C 564.94459 499.33791 566.35217 500.15742 567.875 500.15625 L 639.125 500.15625 C 640.64787 500.15742 642.0554 499.33783 642.8125 498.03125 C 643.56932 496.72517 643.55721 495.10947 642.8125 493.8125 L 607.1875 432.09375 C 606.31182 430.56876 604.57693 429.75973 602.84375 430.03125 z "
           xlink:href="#path3422"
           style="color:#000000;fill:#fff000;fill-opacity:1;fill-rule:nonzero;stroke:none;stroke-width:9.14700031;marker:none;visibility:visible;display:inline;overflow:visible"
           id="path2277"
           d="m 602.84375,430.03125 c -1.27276,0.19714 -2.39161,0.94937 -3.03125,2.0625 l -35.625,61.71875 c -0.74472,1.29698 -0.7568,2.91268 0,4.21875 0.75709,1.30666 2.16467,2.12617 3.6875,2.125 l 71.25,0 c 1.52287,0.001 2.9304,-0.81842 3.6875,-2.125 0.75682,-1.30608 0.74471,-2.92178 0,-4.21875 l -35.625,-61.71875 c -0.87568,-1.52499 -2.61057,-2.33402 -4.34375,-2.0625 z"
           transform="matrix(0.738729,0,0,0.738729,168.6073,57.12999)" />
        <path
           inkscape:connector-curvature="0"
           style="color:#000000;fill:#000000;fill-opacity:1;fill-rule:nonzero;stroke:none;stroke-width:9.14700031;marker:none;visibility:visible;display:inline;overflow:visible"
           d="m 614.1875,376.09375 c -0.50887,0.0788 -0.94216,0.38556 -1.1875,0.8125 l -26.5,45.90625 c -0.29022,0.50547 -0.2911,1.15388 0,1.65625 0.29591,0.51068 0.84227,0.8442 1.4375,0.84375 l 53,0 c 0.59521,4.5e-4 1.14158,-0.33306 1.4375,-0.84375 0.29108,-0.50236 0.29023,-1.15078 0,-1.65625 l -26.5,-45.90625 c -0.3402,-0.59244 -0.99812,-0.9205 -1.6875,-0.8125 z m 0.25,5.28125 22.5,39.625 -45.03125,0 22.53125,-39.625 z"
           id="path2279" />
      </g>
      <g
         transform="translate(6.647128,90.1886)"
         id="g7757">
        <path
           inkscape:connector-curvature="0"
           style="fill:#000000;fill-opacity:1;fill-rule:evenodd;stroke:none"
           d="m 385.0625,93.40625 -0.28125,0.09375 0.0625,0.21875 -7.1875,1.6875 -0.0312,0 c -0.3097,0.158113 -0.50453,0.393579 -0.59375,0.65625 -0.0892,0.262671 -0.0896,0.557871 0,0.8125 0.17913,0.509258 0.65875,0.918148 1.25,0.875 l 0.0312,0 7.125,-1.53125 0.0625,0.28125 0.28125,-0.0625 -0.71875,-3.03125 z m -0.15625,0.625 0.46875,1.90625 -1.34375,0.28125 -6.71875,0 c 0.003,-0.01013 -0.003,-0.0212 0,-0.03125 0.0645,-0.189877 0.1885,-0.372879 0.4375,-0.5 l 7.15625,-1.65625 z"
           id="path7609" />
        <path
           inkscape:connector-curvature="0"
           id="path7717"
           d="m 373.98132,99.378316 0.28818,0.06958 -0.0437,0.22326 7.30467,1.072294 0.0311,-0.003 c 0.32198,0.13129 0.53607,0.3494 0.64723,0.60357 0.11116,0.25416 0.13653,0.54827 0.0689,0.80957 -0.13533,0.52261 -0.57857,0.97068 -1.17135,0.97779 l -0.0311,0.003 -7.22915,-0.9219 -0.0384,0.28553 -0.28553,-0.0384 0.45927,-3.081251 z m 0.20865,0.60951 -0.30551,1.939114 1.36275,0.16636 6.69459,-0.56941 c -0.004,-0.01 0.002,-0.0214 -0.003,-0.0311 -0.0804,-0.18373 -0.21942,-0.35556 -0.4783,-0.46112 l -7.27088,-1.043804 z"
           style="fill:#000000;fill-opacity:1;fill-rule:evenodd;stroke:none" />
        <path
           inkscape:connector-curvature="0"
           style="color:#000000;fill:#000000;fill-opacity:1;fill-rule:nonzero;stroke:none;stroke-width:0.30000001;marker:none;visibility:visible;display:inline;overflow:visible"
           d="m 366.5625,111.25 0,2.375 11.6875,0 0,-2.375 -3.5625,0 c -0.028,0.0561 -0.0793,0.0984 -0.0937,0.15625 -0.023,0.0919 -0.0596,0.18463 -0.125,0.25 -0.0425,0.0425 -0.1509,0.0762 -0.1875,0.125 -0.0168,0.0223 -0.09,0.125 -0.125,0.125 -0.0847,0 -0.16531,0 -0.25,0 -0.0826,0 -0.15416,0.014 -0.21875,0.0625 -0.0537,0.0403 -0.12669,0.0757 -0.15625,0.125 -0.0421,0.0702 -0.1239,0.13788 -0.15625,0.21875 -0.0139,0.0348 -0.0309,0.125 -0.0937,0.125 -0.0737,0 -0.1451,0 -0.21875,0 -0.0439,0 -0.15143,0.0271 -0.1875,0 -0.0442,-0.0331 -0.1012,-0.0937 -0.15625,-0.0937 -0.0715,0 -0.15317,-0.0251 -0.1875,-0.0937 -0.0253,-0.0506 -0.004,-0.10158 -0.0312,-0.15625 -0.0245,-0.0489 -0.0659,-0.1005 -0.0937,-0.15625 -0.0268,-0.0537 -0.06,-0.0937 -0.125,-0.0937 -0.0539,0 -0.21874,0.0277 -0.21875,-0.0625 0,-0.0735 -0.0457,-0.1204 -0.0625,-0.1875 -0.0152,-0.0607 -0.0312,-0.1118 -0.0312,-0.1875 0,-0.0532 0,-0.10305 0,-0.15625 l -5.40625,0 z"
           id="rect7719" />
        <path
           inkscape:connector-curvature="0"
           style="color:#000000;fill:#000000;fill-opacity:1;fill-rule:nonzero;stroke:none;stroke-width:0.30000001;marker:none;visibility:visible;display:inline;overflow:visible"
           d="m 374.10185,105.38045 c 0,0.46211 -0.3208,0.83717 -0.71609,0.83717 -0.39528,0 -0.71608,-0.37506 -0.71608,-0.83717 0,-0.46212 0.65919,-2.1691 0.73626,-2.1691 0.0591,0 0.69591,1.70698 0.69591,2.1691 z"
           id="path7724"
           sodipodi:nodetypes="csssc" />
        <path
           inkscape:connector-curvature="0"
           sodipodi:nodetypes="csssc"
           id="path7727"
           d="m 373.91435,109.69295 c 0,0.46211 -0.3208,0.83717 -0.71609,0.83717 -0.39528,0 -0.71608,-0.37506 -0.71608,-0.83717 0,-0.46212 0.65919,-2.1691 0.73626,-2.1691 0.0591,0 0.69591,1.70698 0.69591,2.1691 z"
           style="color:#000000;fill:#000000;fill-opacity:1;fill-rule:nonzero;stroke:none;stroke-width:0.30000001;marker:none;visibility:visible;display:inline;overflow:visible" />
        <path
           inkscape:connector-curvature="0"
           style="color:#000000;fill:#000000;fill-opacity:1;fill-rule:nonzero;stroke:none;stroke-width:0.30000001;marker:none;visibility:visible;display:inline;overflow:visible"
           d="m 386.8206,99.81795 c 0,0.46211 -0.3208,0.83717 -0.71609,0.83717 -0.39528,0 -0.71608,-0.37506 -0.71608,-0.83717 0,-0.46212 0.65919,-2.1691 0.73626,-2.1691 0.0591,0 0.69591,1.70698 0.69591,2.1691 z"
           id="path7729"
           sodipodi:nodetypes="csssc" />
        <path
           inkscape:connector-curvature="0"
           sodipodi:nodetypes="csssc"
           id="path7731"
           d="m 386.7581,105.25545 c 0,0.46211 -0.3208,0.83717 -0.71609,0.83717 -0.39528,0 -0.71608,-0.37506 -0.71608,-0.83717 0,-0.46212 0.65919,-2.1691 0.73626,-2.1691 0.0591,0 0.69591,1.70698 0.69591,2.1691 z"
           style="color:#000000;fill:#000000;fill-opacity:1;fill-rule:nonzero;stroke:none;stroke-width:0.30000001;marker:none;visibility:visible;display:inline;overflow:visible" />
        <path
           inkscape:connector-curvature="0"
           style="color:#000000;fill:#000000;fill-opacity:1;fill-rule:nonzero;stroke:none;stroke-width:0.30000001;marker:none;visibility:visible;display:inline;overflow:visible"
           d="m 387.53125,106.22656 c -0.37128,0.0246 -0.43966,0.20795 -0.375,0.46094 0.0681,0.31731 0.2363,0.53454 0.40625,0.75 0.62892,0.54768 1.34556,0.68601 2.03125,0.96875 l 0,0.15625 -2.59375,0 c -0.12361,0.35334 -0.4484,0.59375 -0.84375,0.59375 -0.39715,0 -0.72153,-0.23791 -0.84375,-0.59375 l -0.21875,0 c -0.0167,0.25327 -0.21128,0.4375 -0.46875,0.4375 -0.25828,0 -0.4845,-0.18309 -0.5,-0.4375 l -2.375,0 c -0.42846,0 -0.78125,0.32154 -0.78125,0.75 0,0.42847 0.35278,0.78125 0.78125,0.78125 l 6.55871,0 c 0.0491,0.10417 0.12307,0.20833 0.0312,0.3125 l -7.77746,0 c -0.4101,0 -0.75,0.3399 -0.75,0.75 0,0.4101 0.33989,0.71875 0.75,0.71875 l 6.9375,0 c 0.10244,0.15658 0.10193,0.29385 -0.0312,0.40625 l -6.21875,0 c -0.37337,0 -0.6875,0.31413 -0.6875,0.6875 0,0.37337 0.31414,0.65625 0.6875,0.65625 l 7.5625,0 c 0.0468,0.0863 0.095,0.25 0,0.375 l -5.1875,0 c -0.36113,0 -0.625,0.26387 -0.625,0.625 0,0.36113 0.26388,0.65625 0.625,0.65625 l 5.25,0 0,0.0625 c 3.27061,0.56192 7.14866,0.60794 9.59375,-0.59375 l 0,-5.84375 c -2.67779,-1.22344 -5.62674,-1.85035 -8.59375,-2.4375 -0.35842,0.0349 -0.76538,-0.11263 -1.03125,0.0703 -0.42353,-0.34159 -0.86879,-0.31382 -1.3125,-0.3125 z"
           id="rect7734"
           sodipodi:nodetypes="ccccccsccsccsccccsccccsccccscccccccc" />
      </g>
    </g>
  </g>
</svg>
