<?xml version="1.0" encoding="UTF-8" standalone="no"?>
<!-- Created with Inkscape (http://www.inkscape.org/) -->
<svg
   xmlns:dc="http://purl.org/dc/elements/1.1/"
   xmlns:cc="http://creativecommons.org/ns#"
   xmlns:rdf="http://www.w3.org/1999/02/22-rdf-syntax-ns#"
   xmlns:svg="http://www.w3.org/2000/svg"
   xmlns="http://www.w3.org/2000/svg"
   xmlns:sodipodi="http://sodipodi.sourceforge.net/DTD/sodipodi-0.dtd"
   xmlns:inkscape="http://www.inkscape.org/namespaces/inkscape"
   width="24"
   height="38"
   id="svg7594"
   sodipodi:version="0.32"
   inkscape:version="0.46"
   version="1.0"
   sodipodi:docname="hw_building_0.svg"
   inkscape:output_extension="org.inkscape.output.svg.inkscape">
  <defs
     id="defs7596" />
  <sodipodi:namedview
     id="base"
     pagecolor="#ffffff"
     bordercolor="#666666"
     borderopacity="1.0"
     inkscape:pageopacity="0.0"
     inkscape:pageshadow="2"
     inkscape:zoom="17.157895"
     inkscape:cx="12"
     inkscape:cy="19"
     inkscape:document-units="px"
     inkscape:current-layer="layer1"
     showgrid="false"
     inkscape:window-width="1360"
     inkscape:window-height="848"
     inkscape:window-x="163"
     inkscape:window-y="62"
     showguides="true"
     inkscape:guide-bbox="true" />
  <metadata
     id="metadata7599">
    <rdf:RDF>
      <cc:Work
         rdf:about="">
        <dc:format>image/svg+xml</dc:format>
        <dc:type
           rdf:resource="http://purl.org/dc/dcmitype/StillImage" />
        <dc:title>hw_building_0</dc:title>
        <dc:date>2008-05-13</dc:date>
        <dc:creator>
          <cc:Agent>
            <dc:title>Jean Cartier</dc:title>
          </cc:Agent>
        </dc:creator>
        <cc:license
           rdf:resource="http://creativecommons.org/licenses/publicdomain/" />
        <dc:language>fr-FR</dc:language>
        <dc:subject>
          <rdf:Bag>
            <rdf:li>hardware</rdf:li>
            <rdf:li>computer</rdf:li>
            <rdf:li>building</rdf:li>
            <rdf:li>town</rdf:li>
            <rdf:li>city</rdf:li>
          </rdf:Bag>
        </dc:subject>
        <dc:contributor>
          <cc:Agent>
            <dc:title>Jean-Victor Balin (jean.victor.balin@gmail.com)</dc:title>
          </cc:Agent>
        </dc:contributor>
        <dc:description>http://www.jcartier.net</dc:description>
      </cc:Work>
      <cc:License
         rdf:about="http://creativecommons.org/licenses/publicdomain/">
        <cc:permits
           rdf:resource="http://creativecommons.org/ns#Reproduction" />
        <cc:permits
           rdf:resource="http://creativecommons.org/ns#Distribution" />
        <cc:permits
           rdf:resource="http://creativecommons.org/ns#DerivativeWorks" />
      </cc:License>
    </rdf:RDF>
  </metadata>
  <g
     inkscape:label="Calque 1"
     inkscape:groupmode="layer"
     id="layer1">
    <path
       style="opacity:1;fill:#888888;fill-opacity:1;stroke:none;stroke-width:0.69999999;stroke-linecap:round;stroke-linejoin:round;stroke-miterlimit:4;stroke-dasharray:none"
       d=""
       id="path8460" />
    <path
       style="opacity:1;fill:#888888;fill-opacity:1;stroke:none;stroke-width:0.69999999;stroke-linecap:round;stroke-linejoin:round;stroke-miterlimit:4;stroke-dasharray:none"
       d=""
       id="path8462" />
    <path
       style="opacity:1;fill:#888888;fill-opacity:1;stroke:none;stroke-width:0.69999999;stroke-linecap:round;stroke-linejoin:round;stroke-miterlimit:4;stroke-dasharray:none"
       d=""
       id="path8464" />
    <g
       id="g10275">
      <path
         style="fill:#888888;fill-opacity:1;fill-rule:evenodd;stroke:none;stroke-width:1px;stroke-linecap:butt;stroke-linejoin:miter;stroke-opacity:1"
         d="M 2,31.5 L 12,36.5 L 12,11.5 L 2,6.5 L 2,31.5 z"
         id="path9192" />
      <path
         style="fill:#888888;fill-opacity:1;fill-rule:evenodd;stroke:none;stroke-width:1px;stroke-linecap:butt;stroke-linejoin:miter;stroke-opacity:1"
         d="M 12,36.5 L 22,31.5 L 22,6.5 L 12,11.5 L 12,36.5 z"
         id="path9194" />
      <path
         id="path9196"
         d="M 2,6.5 L 12,1.5 L 22,6.5 L 12,11.5 L 2,6.5 z"
         style="fill:#ffffff;fill-opacity:1;fill-rule:evenodd;stroke:none;stroke-width:1px;stroke-linecap:butt;stroke-linejoin:miter;stroke-opacity:1" />
      <path
         style="fill:#888888;fill-opacity:1;fill-rule:evenodd;stroke:none;stroke-width:1px;stroke-linecap:butt;stroke-linejoin:miter;stroke-opacity:1"
         d="M 6,6.5 L 12,3.5 L 18,6.5 L 12,9.5 L 6,6.5 z"
         id="path9198"
         sodipodi:nodetypes="ccccc" />
      <path
         id="path9200"
         d="M 12,0.9375 L 11.78125,1.0625 L 1.78125,6.0625 L 1.5,6.1875 L 1.5,6.5 L 1.5,31.5 L 1.5,31.8125 L 1.78125,31.9375 L 11.78125,36.9375 L 12,37.0625 L 12.21875,36.9375 L 22.21875,31.9375 L 22.5,31.8125 L 22.5,31.5 L 22.5,6.5 L 22.5,6.1875 L 22.21875,6.0625 L 12.21875,1.0625 L 12,0.9375 z M 12,2.0625 L 21.5,6.8125 L 21.5,31.1875 L 12,35.9375 L 2.5,31.1875 L 2.5,6.8125 L 12,2.0625 z"
         style="fill:#000000;fill-opacity:1;fill-rule:evenodd;stroke:none;stroke-width:1px;stroke-linecap:butt;stroke-linejoin:miter;stroke-opacity:1" />
      <path
         id="path9202"
         d="M 5,28.1875 L 5,29 L 5,33 L 5,33.3125 L 5.28125,33.4375 L 9.28125,35.4375 L 10,35.8125 L 10,35 L 10,31 L 10,30.6875 L 9.71875,30.5625 L 5.71875,28.5625 L 5,28.1875 z M 6,29.8125 L 9,31.3125 L 9,34.1875 L 6,32.6875 L 6,29.8125 z"
         style="fill:#000000;fill-opacity:1;fill-rule:evenodd;stroke:none;stroke-width:1px;stroke-linecap:butt;stroke-linejoin:miter;stroke-opacity:1" />
      <path
         id="path9204"
         d="M 15.5,23.6875 L 14.78125,24.0625 L 12.78125,25.0625 L 12.5,25.1875 L 12.5,25.5 L 12.5,28.5 L 12.5,29.3125 L 13.21875,28.9375 L 15.21875,27.9375 L 15.5,27.8125 L 15.5,27.5 L 15.5,24.5 L 15.5,23.6875 z M 14.5,25.3125 L 14.5,27.1875 L 13.5,27.6875 L 13.5,25.8125 L 14.5,25.3125 z"
         style="fill:#000000;fill-opacity:1;fill-rule:evenodd;stroke:none;stroke-width:1px;stroke-linecap:butt;stroke-linejoin:miter;stroke-opacity:1" />
      <path
         id="path9206"
         d="M 15.5,17.6875 L 14.78125,18.0625 L 12.78125,19.0625 L 12.5,19.1875 L 12.5,19.5 L 12.5,22.5 L 12.5,23.3125 L 13.21875,22.9375 L 15.21875,21.9375 L 15.5,21.8125 L 15.5,21.5 L 15.5,18.5 L 15.5,17.6875 z M 14.5,19.3125 L 14.5,21.1875 L 13.5,21.6875 L 13.5,19.8125 L 14.5,19.3125 z"
         style="fill:#000000;fill-opacity:1;fill-rule:evenodd;stroke:none;stroke-width:1px;stroke-linecap:butt;stroke-linejoin:miter;stroke-opacity:1" />
      <path
         id="path9208"
         d="M 15.5,11.6875 L 14.78125,12.0625 L 12.78125,13.0625 L 12.5,13.1875 L 12.5,13.5 L 12.5,16.5 L 12.5,17.3125 L 13.21875,16.9375 L 15.21875,15.9375 L 15.5,15.8125 L 15.5,15.5 L 15.5,12.5 L 15.5,11.6875 z M 14.5,13.3125 L 14.5,15.1875 L 13.5,15.6875 L 13.5,13.8125 L 14.5,13.3125 z"
         style="fill:#000000;fill-opacity:1;fill-rule:evenodd;stroke:none;stroke-width:1px;stroke-linecap:butt;stroke-linejoin:miter;stroke-opacity:1" />
      <path
         id="path9210"
         d="M 20.5,21.1875 L 19.78125,21.5625 L 17.78125,22.5625 L 17.5,22.6875 L 17.5,23 L 17.5,26 L 17.5,26.8125 L 18.21875,26.4375 L 20.21875,25.4375 L 20.5,25.3125 L 20.5,25 L 20.5,22 L 20.5,21.1875 z M 19.5,22.8125 L 19.5,24.6875 L 18.5,25.1875 L 18.5,23.3125 L 19.5,22.8125 z"
         style="fill:#000000;fill-opacity:1;fill-rule:evenodd;stroke:none;stroke-width:1px;stroke-linecap:butt;stroke-linejoin:miter;stroke-opacity:1" />
      <path
         id="path9212"
         d="M 20.5,15.1875 L 19.78125,15.5625 L 17.78125,16.5625 L 17.5,16.6875 L 17.5,17 L 17.5,20 L 17.5,20.8125 L 18.21875,20.4375 L 20.21875,19.4375 L 20.5,19.3125 L 20.5,19 L 20.5,16 L 20.5,15.1875 z M 19.5,16.8125 L 19.5,18.6875 L 18.5,19.1875 L 18.5,17.3125 L 19.5,16.8125 z"
         style="fill:#000000;fill-opacity:1;fill-rule:evenodd;stroke:none;stroke-width:1px;stroke-linecap:butt;stroke-linejoin:miter;stroke-opacity:1" />
      <path
         id="path9214"
         d="M 20.5,9.1875 L 19.78125,9.5625 L 17.78125,10.5625 L 17.5,10.6875 L 17.5,11 L 17.5,14 L 17.5,14.8125 L 18.21875,14.4375 L 20.21875,13.4375 L 20.5,13.3125 L 20.5,13 L 20.5,10 L 20.5,9.1875 z M 19.5,10.8125 L 19.5,12.6875 L 18.5,13.1875 L 18.5,11.3125 L 19.5,10.8125 z"
         style="fill:#000000;fill-opacity:1;fill-rule:evenodd;stroke:none;stroke-width:1px;stroke-linecap:butt;stroke-linejoin:miter;stroke-opacity:1" />
      <path
         id="path9216"
         d="M 8.5,23.6875 L 8.5,24.5 L 8.5,27.5 L 8.5,27.8125 L 8.78125,27.9375 L 10.78125,28.9375 L 11.5,29.3125 L 11.5,28.5 L 11.5,25.5 L 11.5,25.1875 L 11.21875,25.0625 L 9.21875,24.0625 L 8.5,23.6875 z M 9.5,25.3125 L 10.5,25.8125 L 10.5,27.6875 L 9.5,27.1875 L 9.5,25.3125 z"
         style="fill:#000000;fill-opacity:1;fill-rule:evenodd;stroke:none;stroke-width:1px;stroke-linecap:butt;stroke-linejoin:miter;stroke-opacity:1" />
      <path
         id="path9218"
         d="M 8.5,17.6875 L 8.5,18.5 L 8.5,21.5 L 8.5,21.8125 L 8.78125,21.9375 L 10.78125,22.9375 L 11.5,23.3125 L 11.5,22.5 L 11.5,19.5 L 11.5,19.1875 L 11.21875,19.0625 L 9.21875,18.0625 L 8.5,17.6875 z M 9.5,19.3125 L 10.5,19.8125 L 10.5,21.6875 L 9.5,21.1875 L 9.5,19.3125 z"
         style="fill:#000000;fill-opacity:1;fill-rule:evenodd;stroke:none;stroke-width:1px;stroke-linecap:butt;stroke-linejoin:miter;stroke-opacity:1" />
      <path
         id="path9220"
         d="M 8.5,11.6875 L 8.5,12.5 L 8.5,15.5 L 8.5,15.8125 L 8.78125,15.9375 L 10.78125,16.9375 L 11.5,17.3125 L 11.5,16.5 L 11.5,13.5 L 11.5,13.1875 L 11.21875,13.0625 L 9.21875,12.0625 L 8.5,11.6875 z M 9.5,13.3125 L 10.5,13.8125 L 10.5,15.6875 L 9.5,15.1875 L 9.5,13.3125 z"
         style="fill:#000000;fill-opacity:1;fill-rule:evenodd;stroke:none;stroke-width:1px;stroke-linecap:butt;stroke-linejoin:miter;stroke-opacity:1" />
      <path
         id="path9222"
         d="M 3.5,21.1875 L 3.5,22 L 3.5,25 L 3.5,25.3125 L 3.78125,25.4375 L 5.78125,26.4375 L 6.5,26.8125 L 6.5,26 L 6.5,23 L 6.5,22.6875 L 6.21875,22.5625 L 4.21875,21.5625 L 3.5,21.1875 z M 4.5,22.8125 L 5.5,23.3125 L 5.5,25.1875 L 4.5,24.6875 L 4.5,22.8125 z"
         style="fill:#000000;fill-opacity:1;fill-rule:evenodd;stroke:none;stroke-width:1px;stroke-linecap:butt;stroke-linejoin:miter;stroke-opacity:1" />
      <path
         id="path9224"
         d="M 3.5,15.1875 L 3.5,16 L 3.5,19 L 3.5,19.3125 L 3.78125,19.4375 L 5.78125,20.4375 L 6.5,20.8125 L 6.5,20 L 6.5,17 L 6.5,16.6875 L 6.21875,16.5625 L 4.21875,15.5625 L 3.5,15.1875 z M 4.5,16.8125 L 5.5,17.3125 L 5.5,19.1875 L 4.5,18.6875 L 4.5,16.8125 z"
         style="fill:#000000;fill-opacity:1;fill-rule:evenodd;stroke:none;stroke-width:1px;stroke-linecap:butt;stroke-linejoin:miter;stroke-opacity:1" />
      <path
         id="path9226"
         d="M 3.5,9.1875 L 3.5,10 L 3.5,13 L 3.5,13.3125 L 3.78125,13.4375 L 5.78125,14.4375 L 6.5,14.8125 L 6.5,14 L 6.5,11 L 6.5,10.6875 L 6.21875,10.5625 L 4.21875,9.5625 L 3.5,9.1875 z M 4.5,10.8125 L 5.5,11.3125 L 5.5,13.1875 L 4.5,12.6875 L 4.5,10.8125 z"
         style="fill:#000000;fill-opacity:1;fill-rule:evenodd;stroke:none;stroke-width:1px;stroke-linecap:butt;stroke-linejoin:miter;stroke-opacity:1" />
    </g>
  </g>
</svg>
