<svg xmlns="http://www.w3.org/2000/svg" id="Layer_1" enable-background="new 0 0 32 32" viewBox="0 0 32 32" x="0px" y="0px" width="32px" height="32px" version="1.1" xmlns:xml="http://www.w3.org/XML/1998/namespace" xml:space="preserve"><g id="search_1_"><path fill="#333333" d="M 20 0.005 c -6.627 0 -12 5.373 -12 12 c 0 2.026 0.507 3.933 1.395 5.608 l -8.344 8.342 l 0.007 0.006 C 0.406 26.602 0 27.49 0 28.477 c 0 1.949 1.58 3.529 3.529 3.529 c 0.985 0 1.874 -0.406 2.515 -1.059 l -0.002 -0.002 l 8.341 -8.34 c 1.676 0.891 3.586 1.4 5.617 1.4 c 6.627 0 12 -5.373 12 -12 C 32 5.378 26.627 0.005 20 0.005 Z M 4.795 29.697 c -0.322 0.334 -0.768 0.543 -1.266 0.543 c -0.975 0 -1.765 -0.789 -1.765 -1.764 c 0 -0.498 0.21 -0.943 0.543 -1.266 l -0.009 -0.008 l 8.066 -8.066 c 0.705 0.951 1.545 1.791 2.494 2.498 L 4.795 29.697 Z M 20 22.006 c -5.522 0 -10 -4.479 -10 -10 c 0 -5.522 4.478 -10 10 -10 c 5.521 0 10 4.478 10 10 C 30 17.527 25.521 22.006 20 22.006 Z" /><path fill="#333333" d="M 20 5.005 c -3.867 0 -7 3.134 -7 7 c 0 0.276 0.224 0.5 0.5 0.5 s 0.5 -0.224 0.5 -0.5 c 0 -3.313 2.686 -6 6 -6 c 0.275 0 0.5 -0.224 0.5 -0.5 S 20.275 5.005 20 5.005 Z" /></g></svg>