<?xml version="1.0" encoding="UTF-8" standalone="no"?>
<svg
   xmlns:dc="http://purl.org/dc/elements/1.1/"
   xmlns:cc="http://creativecommons.org/ns#"
   xmlns:rdf="http://www.w3.org/1999/02/22-rdf-syntax-ns#"
   xmlns:svg="http://www.w3.org/2000/svg"
   xmlns="http://www.w3.org/2000/svg"
   xmlns:xlink="http://www.w3.org/1999/xlink"
   version="1.1"
   id="svg3411"
   viewBox="0 0 693.10792 105.51586"
   height="29.778921mm"
   width="195.61046mm">
  <defs
     id="defs3413">
    <clipPath
       id="SVGID_2_">
      <use
         height="100%"
         width="100%"
         y="0"
         x="0"
         id="use15"
         style="overflow:visible"
         xlink:href="#SVGID_1_" />
    </clipPath>
    <clipPath
       id="clipPath3429">
      <use
         height="100%"
         width="100%"
         y="0"
         x="0"
         id="use3431"
         style="overflow:visible"
         xlink:href="#SVGID_1_" />
    </clipPath>
    <clipPath
       id="clipPath3433">
      <use
         height="100%"
         width="100%"
         y="0"
         x="0"
         id="use3435"
         style="overflow:visible"
         xlink:href="#SVGID_1_" />
    </clipPath>
    <clipPath
       id="clipPath3437">
      <use
         height="100%"
         width="100%"
         y="0"
         x="0"
         id="use3439"
         style="overflow:visible"
         xlink:href="#SVGID_1_" />
    </clipPath>
    <clipPath
       id="clipPath3441">
      <use
         height="100%"
         width="100%"
         y="0"
         x="0"
         id="use3443"
         style="overflow:visible"
         xlink:href="#SVGID_1_" />
    </clipPath>
    <clipPath
       id="clipPath3445">
      <use
         height="100%"
         width="100%"
         y="0"
         x="0"
         id="use3447"
         style="overflow:visible"
         xlink:href="#SVGID_1_" />
    </clipPath>
  </defs>
  <metadata
     id="metadata3416">
    <rdf:RDF>
      <cc:Work
         rdf:about="">
        <dc:format>image/svg+xml</dc:format>
        <dc:type
           rdf:resource="http://purl.org/dc/dcmitype/StillImage" />
        <dc:title></dc:title>
      </cc:Work>
    </rdf:RDF>
  </metadata>
  <g
     transform="translate(-153.44603,-616.74714)"
     id="layer1">
    <g
       transform="translate(191.42857,-182.85714)"
       id="g3578">
      <g
         transform="translate(-45.274605,780.11221)"
         id="g7">
        <g
           id="g9">
          <defs
             id="defs11">
            <path
               id="SVGID_1_"
               d="M 59.2,19.5 C 30,20 6.8,44.1 7.3,73.2 7.8,102.3 31.8,125.5 61,125 90.1,124.5 113.4,100.5 112.9,71.3 112.4,42.2 88.3,19 59.2,19.5 Z" />
          </defs>
          <clipPath
             id="clipPath3453">
            <use
               xlink:href="#SVGID_1_"
               style="overflow:visible"
               id="use3455"
               x="0"
               y="0"
               width="100%"
               height="100%" />
          </clipPath>
          <path
             class="st1"
             d="M 59.2,19.5 C 30,20 6.8,44.1 7.3,73.2 7.8,102.3 31.8,125.5 61,125 90.1,124.5 113.4,100.5 112.9,71.3 112.4,42.2 88.3,19 59.2,19.5 Z"
             id="path17"
             clip-path="url(#SVGID_2_)"
             style="fill:#004b8d" />
          <path
             class="st2"
             d="m 46,133.4 c 0,0 33.8,-9.7 35.7,-13.2 2.1,-3.7 2.1,-10.5 2.1,-10.5 l 0,-0.6 c 0,0 0,-6.8 -2.1,-10.4 -1,-1.7 -9.9,-5.1 -18.6,-7.9 l -1.9,-0.6 c -4.7,1.5 -9.6,3.2 -13.4,4.8 l 1.2,0.5 c 6.3,1.9 20.9,6.3 28.3,9.6 0.4,0.2 1.6,0.7 2.9,1.8 1.2,1.1 1.3,2.3 1.3,2.3 l 0,0.6 c 0,0 -0.1,1.2 -1.3,2.3 -1.2,1.1 -2.5,1.6 -2.9,1.8 -9.6,4.3 -31.3,10.5 -31.3,10.5 0,0 -3.1,0.9 -5.8,3.1 -1.9,1.7 -2.1,2.6 -2.1,2.6"
             id="path19"
             clip-path="url(#SVGID_2_)"
             style="fill:#e31837;stroke:#ffffff;stroke-linecap:square;stroke-miterlimit:10" />
          <path
             class="st2"
             d="m 82.3,5.6 -0.1,5.8 -0.2,3.3 c 0,0 -0.2,0.8 -2.1,2.6 -2.7,2.2 -5.8,3.1 -5.8,3.1 0,0 -21.7,6.2 -31.3,10.5 -0.4,0.2 -1.6,0.7 -2.9,1.8 -1.2,1.1 -1.3,2.3 -1.3,2.3 l 0,0.6 c 0,0 0.1,1.2 1.3,2.3 1.2,1.1 2.5,1.6 2.9,1.8 7.4,3.3 22,7.8 28.3,9.6 l 1.2,0.5 C 68.5,51.3 63.6,53 58.9,54.6 L 57.2,54 C 48.5,51.1 39.6,47.8 38.6,46.1 36.5,42.4 36.5,35.7 36.5,35.7 l 0,-0.6 c 0,0 0,-6.8 2.1,-10.4 2,-3.5 35.7,-13.2 35.7,-13.2 0,0 3.1,-0.9 5.8,-3.1 1.8,-1.9 2.2,-2.8 2.2,-2.8"
             id="path21"
             clip-path="url(#SVGID_2_)"
             style="fill:#e31837;stroke:#ffffff;stroke-linecap:square;stroke-miterlimit:10" />
          <path
             class="st2"
             d="m 83.6,48.2 c 0,0 0,-6.8 -2.1,-10.4 -1,-1.8 -9.9,-5.1 -18.6,-7.9 L 61,29.3 c -4.7,1.5 -9.6,3.2 -13.4,4.8 l 1.2,0.5 c 6.3,1.9 20.9,6.3 28.3,9.6 0.4,0.2 1.6,0.7 2.9,1.8 1.2,1.1 1.3,2.3 1.3,2.3 l 0,0.6 c 0,0 -0.1,1.2 -1.3,2.3 -1.2,1.1 -2.5,1.6 -2.9,1.8 -9.6,4.3 -31.3,10.5 -31.3,10.5 0,0 -3.1,0.9 -5.8,3.1 -1.9,1.7 -2.1,2.6 -2.1,2.6 l -0.2,3.4 -0.1,5.8 c 0,0 1.7,-2.1 5,-3.9 3.3,-1.8 10.9,-4.2 10.9,-4.2 0,0 26,-7.3 27.9,-10.8 2.1,-3.7 2.1,-10.4 2.1,-10.4 l 0.1,-0.9 z"
             id="path23"
             clip-path="url(#SVGID_2_)"
             style="fill:#e31837;stroke:#ffffff;stroke-linecap:square;stroke-miterlimit:10" />
          <path
             class="st3"
             d="M 59.2,19.5 C 30,20 6.8,44.1 7.3,73.2 7.8,102.3 31.8,125.5 61,125 90.1,124.5 113.4,100.5 112.9,71.3 112.4,42.2 88.3,19 59.2,19.5 Z"
             id="path25"
             clip-path="url(#SVGID_2_)"
             style="fill:none" />
          <path
             class="st2"
             d="m 36.6,96.4 c 0,0 0,6.8 2.1,10.5 1,1.7 9.9,5.1 18.6,7.9 l 1.9,0.6 c 4.7,-1.5 9.6,-3.2 13.4,-4.8 l -1.2,-0.5 c -6.3,-1.9 -20.9,-6.3 -28.3,-9.6 -0.4,-0.2 -1.6,-0.7 -2.9,-1.8 -1.2,-1.1 -1.3,-2.3 -1.3,-2.3 l 0,-0.6 c 0,0 0.1,-1.2 1.3,-2.3 1.2,-1.1 2.5,-1.6 2.9,-1.8 9.6,-4.3 31.3,-10.5 31.3,-10.5 0,0 3.1,-0.9 5.8,-3.1 1.9,-1.7 2.1,-2.6 2.1,-2.6 l 0.2,-3.3 0.1,-5.7 c 0,0 -1.7,2.1 -4.9,3.9 -3.3,1.8 -10.9,4.2 -10.9,4.2 0,0 -26,7.3 -28,10.8 -2.1,3.7 -2.1,10.4 -2.1,10.4 l -0.1,0.6 z"
             id="path27"
             clip-path="url(#SVGID_2_)"
             style="fill:#e31837;stroke:#ffffff;stroke-linecap:square;stroke-miterlimit:10" />
        </g>
      </g>
      <g
         transform="translate(-45.274605,780.11221)"
         id="g29">
        <path
           class="st4"
           d="m 186.5,60.2 0,-30.4 -14.3,0 0,-3.4 34.8,0 0,3.4 -14.3,0 0,30.4 -6.2,0 z"
           id="path31"
           style="fill:#004b8d" />
        <path
           class="st4"
           d="m 257.7,60.2 -6.2,0 0,-16.8 -21.8,0 0,16.8 -6.2,0 0,-33.8 6.2,0 0,13.6 21.8,0 0,-13.6 6.2,0 0,33.8 z"
           id="path33"
           style="fill:#004b8d" />
        <path
           class="st4"
           d="m 301.2,29.8 -15.8,0 0,10.9 15.5,0 0,3.4 -15.5,0 0,12.7 18.5,0 0,3.4 -24.7,0 0,-33.8 22,0 0,3.4 z"
           id="path35"
           style="fill:#004b8d" />
        <path
           class="st4"
           d="m 362.5,26.4 c 18,0 24.2,7.8 24.2,15.9 0,11.2 -9.4,17.9 -25.2,17.9 l -13.3,0 0,-33.8 14.3,0 z m -8.1,30.4 6.9,0 c 12.5,0 18.6,-4.7 18.6,-14.6 0,-7.5 -5.5,-12.4 -17.3,-12.4 l -8.2,0 0,27 z"
           id="path37"
           style="fill:#004b8d" />
        <path
           class="st4"
           d="m 403.7,42.7 c 0,-9.5 9.4,-16.9 22.3,-16.9 12.9,0 22.3,7.4 22.3,16.9 0,10.1 -8.5,18 -22.3,18 -13.8,0.1 -22.3,-7.9 -22.3,-18 z m 37.8,0 c 0,-6.3 -4.5,-13.5 -15.5,-13.5 -11,0 -15.5,7.2 -15.5,13.5 0,6.6 3.9,14.7 15.5,14.7 11.5,0 15.5,-8.1 15.5,-14.7 z"
           id="path39"
           style="fill:#004b8d" />
        <path
           class="st4"
           d="m 501.2,32.1 c -2.1,-1.3 -6.9,-2.9 -11.7,-2.9 -11,0 -17.5,6 -17.5,13.9 0,8.5 7.8,14.3 17.5,14.3 4.8,0 8.7,-1.2 11.3,-2.5 l 2.4,2.8 c -3,1.5 -8.3,3.1 -14,3.1 -15.9,0 -24,-8.3 -24,-17.6 0,-8.5 8.8,-17.4 24.8,-17.4 6.4,0 10.8,1.7 13.8,3.4 l -2.6,2.9 z"
           id="path41"
           style="fill:#004b8d" />
        <path
           class="st4"
           d="m 531.1,60.2 0,-30.4 -14.3,0 0,-3.4 34.8,0 0,3.4 -14.3,0 0,30.4 -6.2,0 z"
           id="path43"
           style="fill:#004b8d" />
        <path
           class="st4"
           d="m 565.9,42.7 c 0,-9.5 9.4,-16.9 22.3,-16.9 12.9,0 22.3,7.4 22.3,16.9 0,10.1 -8.5,18 -22.3,18 -13.8,0.1 -22.3,-7.9 -22.3,-18 z m 37.7,0 c 0,-6.3 -4.5,-13.5 -15.5,-13.5 -11,0 -15.5,7.2 -15.5,13.5 0,6.6 3.9,14.7 15.5,14.7 11.6,0 15.5,-8.1 15.5,-14.7 z"
           id="path45"
           style="fill:#004b8d" />
        <path
           class="st4"
           d="m 629.7,26.4 12.7,0 c 7.3,0 12.9,2.8 12.9,8.7 0,5 -3.2,7.8 -7.5,9.8 l 11.2,14.4 -6.2,1.4 -10.3,-14.6 -6.6,0 0,14 -6.2,0 0,-33.7 z m 6.2,16.4 3.5,0 c 7.9,0 9.4,-4.4 9.4,-7.3 0,-4.1 -3.4,-5.7 -7.6,-5.7 l -5.3,0 0,13 z"
           id="path47"
           style="fill:#004b8d" />
        <path
           class="st4"
           d="m 696.8,31.6 c -2.2,-1.2 -5,-2.4 -7.7,-2.4 -4.5,0 -6.9,2 -6.9,4.6 0,2.4 2.7,4.2 8.5,7.3 6.1,3.4 9.7,6.5 9.7,10.8 0,5.4 -6.7,8.8 -13.8,8.8 -4.3,0 -9.4,-1.2 -12.5,-3.5 l 2.7,-2.8 c 2.6,1.4 5.5,2.9 9.7,2.9 4.4,0 7.8,-1.8 7.8,-5.5 0,-4.2 -6.7,-7 -10.3,-9 -3.7,-2.2 -7.8,-4.2 -7.8,-9 0,-4.5 5.8,-8 12.7,-8 4.6,0 8.5,1.3 11,3.4 l -3.1,2.4 z"
           id="path49"
           style="fill:#004b8d" />
        <path
           class="st4"
           d="m 175.4,84.3 6.2,0 0,30.4 18.5,0 0,3.4 -24.7,0 0,-33.8 z"
           id="path51"
           style="fill:#004b8d" />
        <path
           class="st4"
           d="m 234.1,84.3 16.6,33.8 -7.1,0 -4.6,-9.9 -17,0 -4.8,9.9 -6,0 18.2,-33.8 4.7,0 z m 3.4,20.5 c -2.2,-4.7 -4.4,-9.4 -6.6,-15.4 l -0.1,0 c -2.3,6.1 -4.7,10.8 -7.1,15.4 l 13.8,0 z"
           id="path53"
           style="fill:#004b8d" />
        <path
           class="st4"
           d="m 266.6,118.1 0,-33.8 13.8,0 c 6.6,0 11.6,2.5 11.6,6.9 0,5.5 -5.7,8.1 -9.1,8.6 l 0,0.1 c 5.9,0.1 11.8,2.9 11.8,8.4 0,5.6 -6.4,9.8 -15.6,9.8 l -12.5,0 z m 6.2,-19.3 3.1,0 c 5.4,0 10,-2.8 10,-6.4 0,-3 -2.7,-4.7 -7.8,-4.7 l -5.2,0 0,11.1 z m 0,15.9 6,0 c 5,0 9.4,-2.1 9.4,-6.1 0,-4.7 -5.4,-6.4 -10.4,-6.4 l -5,0 0,12.5 z"
           id="path55"
           style="fill:#004b8d" />
        <path
           class="st4"
           d="m 311.7,100.6 c 0,-9.5 9.4,-16.9 22.3,-16.9 12.9,0 22.3,7.4 22.3,16.9 0,10.1 -8.5,18 -22.3,18 -13.7,0.1 -22.3,-7.9 -22.3,-18 z m 37.8,0 c 0,-6.3 -4.5,-13.5 -15.5,-13.5 -11,0 -15.5,7.2 -15.5,13.5 0,6.6 3.9,14.7 15.5,14.7 11.6,0 15.5,-8.1 15.5,-14.7 z"
           id="path57"
           style="fill:#004b8d" />
        <path
           class="st4"
           d="m 375.6,84.3 12.7,0 c 7.3,0 12.9,2.8 12.9,8.7 0,5 -3.2,7.8 -7.5,9.8 l 11.1,14.4 -6.2,1.4 -10.3,-14.6 -6.6,0 0,14 -6.2,0 0,-33.7 z m 6.1,16.4 3.5,0 c 7.9,0 9.4,-4.4 9.4,-7.3 0,-4.1 -3.4,-5.7 -7.6,-5.7 l -5.3,0 0,13 z"
           id="path59"
           style="fill:#004b8d" />
        <path
           class="st4"
           d="m 439.1,84.3 16.6,33.8 -7.1,0 -4.6,-9.9 -17,0 -4.8,9.9 -6,0 18.2,-33.8 4.7,0 z m 3.4,20.5 c -2.2,-4.7 -4.4,-9.4 -6.6,-15.4 l -0.1,0 c -2.3,6.1 -4.7,10.8 -7.1,15.4 l 13.8,0 z"
           id="path61"
           style="fill:#004b8d" />
        <path
           class="st4"
           d="m 477.4,118.1 0,-30.4 -14.3,0 0,-3.4 34.8,0 0,3.4 -14.3,0 0,30.4 -6.2,0 z"
           id="path63"
           style="fill:#004b8d" />
        <path
           class="st4"
           d="m 512.1,100.6 c 0,-9.5 9.4,-16.9 22.3,-16.9 12.9,0 22.3,7.4 22.3,16.9 0,10.1 -8.5,18 -22.3,18 -13.8,0.1 -22.3,-7.9 -22.3,-18 z m 37.8,0 c 0,-6.3 -4.5,-13.5 -15.5,-13.5 -11,0 -15.5,7.2 -15.5,13.5 0,6.6 3.9,14.7 15.5,14.7 11.5,0 15.5,-8.1 15.5,-14.7 z"
           id="path65"
           style="fill:#004b8d" />
        <path
           class="st4"
           d="m 575.9,84.3 12.7,0 c 7.3,0 12.9,2.8 12.9,8.7 0,5 -3.2,7.8 -7.5,9.8 l 11.1,14.4 -6.2,1.4 -10.3,-14.6 -6.6,0 0,14 -6.2,0 0,-33.7 z m 6.2,16.4 3.5,0 c 7.9,0 9.4,-4.4 9.4,-7.3 0,-4.1 -3.4,-5.7 -7.6,-5.7 l -5.3,0 0,13 z"
           id="path67"
           style="fill:#004b8d" />
        <path
           class="st4"
           d="m 630.1,118.1 0,-14.6 -13.4,-18.7 6.7,-1 10.8,16 11.7,-16 5.5,0.6 -15,19.1 0,14.6 -6.3,0 z"
           id="path69"
           style="fill:#004b8d" />
      </g>
    </g>
  </g>
</svg>
